<svg width="12" height="17" viewBox="0 0 12 17" fill="none" xmlns="http://www.w3.org/2000/svg">
<path d="M5.10243 3.40151H6.80324V1.70075H5.10243V3.40151ZM5.95283 8.50377C4.87565 8.50377 3.84808 8.28055 2.87012 7.8341C1.89215 7.38765 0.935445 6.88805 0 6.33531V5.10226C0 4.63456 0.166538 4.23417 0.499613 3.90111C0.832688 3.56804 1.23309 3.40151 1.70081 3.40151H3.40162V0.850377C3.40162 0.609437 3.48312 0.407472 3.64611 0.244483C3.8091 0.0814945 4.01108 0 4.25202 0H7.65364C7.89459 0 8.09656 0.0814945 8.25956 0.244483C8.42255 0.407472 8.50405 0.609437 8.50405 0.850377V3.40151H10.2049C10.6726 3.40151 11.073 3.56804 11.4061 3.90111C11.7391 4.23417 11.9057 4.63456 11.9057 5.10226V6.33531C10.9702 6.88805 10.0135 7.38765 9.03555 7.8341C8.05758 8.28055 7.03001 8.50377 5.95283 8.50377ZM1.70081 16.1572C1.23309 16.1572 0.832688 15.9906 0.499613 15.6576C0.166538 15.3245 0 14.9241 0 14.4564V8.24866C0.793711 8.73054 1.61223 9.14155 2.45554 9.48171C3.29886 9.82186 4.18116 10.0486 5.10243 10.162V10.2045C5.10243 10.4455 5.18393 10.6474 5.34692 10.8104C5.50991 10.9734 5.71188 11.0549 5.95283 11.0549C6.19378 11.0549 6.39575 10.9734 6.55875 10.8104C6.72174 10.6474 6.80324 10.4455 6.80324 10.2045V10.162C7.72451 10.0486 8.6068 9.82186 9.45012 9.48171C10.2934 9.14155 11.112 8.73054 11.9057 8.24866V14.4564C11.9057 14.9241 11.7391 15.3245 11.4061 15.6576C11.073 15.9906 10.6726 16.1572 10.2049 16.1572C10.2049 16.3981 10.1234 16.6001 9.96036 16.7631C9.79737 16.926 9.5954 17.0075 9.35445 17.0075C9.12768 17.0075 8.96823 16.9048 8.8761 16.6993C8.78397 16.4938 8.65995 16.3131 8.50405 16.1572H3.40162C3.40162 16.3981 3.32012 16.6001 3.15713 16.7631C2.99413 16.926 2.79216 17.0075 2.55121 17.0075C2.32444 17.0075 2.16499 16.9048 2.07286 16.6993C1.98073 16.4938 1.85672 16.3131 1.70081 16.1572Z" fill="#1A2129"/>
</svg>
