<svg width="102" height="16" viewBox="0 0 102 16" fill="none" xmlns="http://www.w3.org/2000/svg">
<path d="M4.04984 15.524C3.68184 15.812 3.30584 15.82 2.92184 15.548C2.53784 15.276 2.40984 14.916 2.53784 14.468L3.90584 10.028L0.425838 7.556C0.0418382 7.284 -0.0740018 6.924 0.0783182 6.476C0.229998 6.028 0.537838 5.804 1.00184 5.804H5.29784L6.68984 1.196C6.76984 0.972 6.894 0.79984 7.06232 0.67952C7.23 0.55984 7.40984 0.5 7.60184 0.5C7.79384 0.5 7.97368 0.55984 8.14136 0.67952C8.30968 0.79984 8.43384 0.972 8.51384 1.196L9.90584 5.804H14.2018C14.6658 5.804 14.974 6.028 15.1263 6.476C15.278 6.924 15.1618 7.284 14.7778 7.556L11.2978 10.028L12.6658 14.468C12.7938 14.916 12.6658 15.276 12.2818 15.548C11.8978 15.82 11.5218 15.812 11.1538 15.524L7.60184 12.812L4.04984 15.524Z" fill="#008080"/>
<path d="M25.6271 15.524C25.2591 15.812 24.8831 15.82 24.4991 15.548C24.1151 15.276 23.9871 14.916 24.1151 14.468L25.4831 10.028L22.0031 7.556C21.6191 7.284 21.5033 6.924 21.6556 6.476C21.8073 6.028 22.1151 5.804 22.5791 5.804H26.8751L28.2671 1.196C28.3471 0.972 28.4713 0.79984 28.6396 0.67952C28.8073 0.55984 28.9871 0.5 29.1791 0.5C29.3711 0.5 29.551 0.55984 29.7187 0.67952C29.887 0.79984 30.0111 0.972 30.0911 1.196L31.4831 5.804H35.7791C36.2431 5.804 36.5513 6.028 36.7036 6.476C36.8553 6.924 36.7391 7.284 36.3551 7.556L32.8751 10.028L34.2431 14.468C34.3711 14.916 34.2431 15.276 33.8591 15.548C33.4751 15.82 33.0991 15.812 32.7311 15.524L29.1791 12.812L25.6271 15.524Z" fill="#008080"/>
<path d="M47.2045 15.524C46.8365 15.812 46.4605 15.82 46.0765 15.548C45.6925 15.276 45.5645 14.916 45.6925 14.468L47.0605 10.028L43.5805 7.556C43.1965 7.284 43.0806 6.924 43.233 6.476C43.3846 6.028 43.6925 5.804 44.1565 5.804H48.4525L49.8445 1.196C49.9245 0.972 50.0486 0.79984 50.2169 0.67952C50.3846 0.55984 50.5645 0.5 50.7565 0.5C50.9485 0.5 51.1283 0.55984 51.296 0.67952C51.4643 0.79984 51.5885 0.972 51.6685 1.196L53.0605 5.804H57.3565C57.8205 5.804 58.1286 6.028 58.2809 6.476C58.4326 6.924 58.3165 7.284 57.9325 7.556L54.4525 10.028L55.8205 14.468C55.9485 14.916 55.8205 15.276 55.4365 15.548C55.0525 15.82 54.6765 15.812 54.3085 15.524L50.7565 12.812L47.2045 15.524Z" fill="#008080"/>
<path d="M68.7818 15.524C68.4138 15.812 68.0378 15.82 67.6538 15.548C67.2698 15.276 67.1418 14.916 67.2698 14.468L68.6378 10.028L65.1578 7.556C64.7738 7.284 64.6579 6.924 64.8103 6.476C64.9619 6.028 65.2698 5.804 65.7338 5.804H70.0298L71.4218 1.196C71.5018 0.972 71.6259 0.79984 71.7943 0.67952C71.9619 0.55984 72.1418 0.5 72.3338 0.5C72.5258 0.5 72.7056 0.55984 72.8733 0.67952C73.0416 0.79984 73.1658 0.972 73.2458 1.196L74.6378 5.804H78.9338C79.3978 5.804 79.7059 6.028 79.8583 6.476C80.0099 6.924 79.8938 7.284 79.5098 7.556L76.0298 10.028L77.3978 14.468C77.5258 14.916 77.3978 15.276 77.0138 15.548C76.6298 15.82 76.2538 15.812 75.8858 15.524L72.3338 12.812L68.7818 15.524Z" fill="#008080"/>
<path d="M90.3591 15.524C89.9911 15.812 89.6151 15.82 89.2311 15.548C88.8471 15.276 88.7191 14.916 88.8471 14.468L90.2151 10.028L86.7351 7.556C86.3511 7.284 86.2353 6.924 86.3876 6.476C86.5393 6.028 86.8471 5.804 87.3111 5.804H91.6071L92.9991 1.196C93.0791 0.972 93.2033 0.79984 93.3716 0.67952C93.5393 0.55984 93.7191 0.5 93.9111 0.5C94.1031 0.5 94.2829 0.55984 94.4506 0.67952C94.6189 0.79984 94.7431 0.972 94.8231 1.196L96.2151 5.804H100.511C100.975 5.804 101.283 6.028 101.436 6.476C101.587 6.924 101.471 7.284 101.087 7.556L97.6071 10.028L98.9751 14.468C99.1031 14.916 98.9751 15.276 98.5911 15.548C98.2071 15.82 97.8311 15.812 97.4631 15.524L93.9111 12.812L90.3591 15.524Z" fill="#C1E8E8"/>
</svg>
