<svg width="102" height="16" viewBox="0 0 102 16" fill="none" xmlns="http://www.w3.org/2000/svg">
<path d="M4.54984 15.524C4.18184 15.812 3.80584 15.82 3.42184 15.548C3.03784 15.276 2.90984 14.916 3.03784 14.468L4.40584 10.028L0.925838 7.556C0.541838 7.284 0.425998 6.924 0.578318 6.476C0.729998 6.028 1.03784 5.804 1.50184 5.804H5.79784L7.18984 1.196C7.26984 0.972 7.394 0.79984 7.56232 0.67952C7.73 0.55984 7.90984 0.5 8.10184 0.5C8.29384 0.5 8.47368 0.55984 8.64136 0.67952C8.80968 0.79984 8.93384 0.972 9.01384 1.196L10.4058 5.804H14.7018C15.1658 5.804 15.474 6.028 15.6263 6.476C15.778 6.924 15.6618 7.284 15.2778 7.556L11.7978 10.028L13.1658 14.468C13.2938 14.916 13.1658 15.276 12.7818 15.548C12.3978 15.82 12.0218 15.812 11.6538 15.524L8.10184 12.812L4.54984 15.524Z" fill="#008080"/>
<path d="M26.1272 15.524C25.7592 15.812 25.3832 15.82 24.9992 15.548C24.6152 15.276 24.4872 14.916 24.6152 14.468L25.9832 10.028L22.5032 7.556C22.1192 7.284 22.0033 6.924 22.1556 6.476C22.3073 6.028 22.6152 5.804 23.0792 5.804H27.3752L28.7672 1.196C28.8472 0.972 28.9713 0.79984 29.1396 0.67952C29.3073 0.55984 29.4872 0.5 29.6792 0.5C29.8712 0.5 30.051 0.55984 30.2187 0.67952C30.387 0.79984 30.5112 0.972 30.5912 1.196L31.9832 5.804H36.2792C36.7432 5.804 37.0513 6.028 37.2036 6.476C37.3553 6.924 37.2392 7.284 36.8552 7.556L33.3752 10.028L34.7432 14.468C34.8712 14.916 34.7432 15.276 34.3592 15.548C33.9752 15.82 33.5992 15.812 33.2312 15.524L29.6792 12.812L26.1272 15.524Z" fill="#008080"/>
<path d="M47.7045 15.524C47.3365 15.812 46.9605 15.82 46.5765 15.548C46.1925 15.276 46.0645 14.916 46.1925 14.468L47.5605 10.028L44.0805 7.556C43.6965 7.284 43.5806 6.924 43.7329 6.476C43.8846 6.028 44.1925 5.804 44.6565 5.804H48.9525L50.3445 1.196C50.4245 0.972 50.5486 0.79984 50.7169 0.67952C50.8846 0.55984 51.0645 0.5 51.2565 0.5C51.4485 0.5 51.6283 0.55984 51.796 0.67952C51.9643 0.79984 52.0885 0.972 52.1685 1.196L53.5605 5.804H57.8565C58.3205 5.804 58.6286 6.028 58.7809 6.476C58.9326 6.924 58.8165 7.284 58.4325 7.556L54.9525 10.028L56.3205 14.468C56.4485 14.916 56.3205 15.276 55.9365 15.548C55.5525 15.82 55.1765 15.812 54.8085 15.524L51.2565 12.812L47.7045 15.524Z" fill="#008080"/>
<path d="M69.2818 15.524C68.9138 15.812 68.5378 15.82 68.1538 15.548C67.7698 15.276 67.6418 14.916 67.7698 14.468L69.1378 10.028L65.6578 7.556C65.2738 7.284 65.1579 6.924 65.3103 6.476C65.4619 6.028 65.7698 5.804 66.2338 5.804H70.5298L71.9218 1.196C72.0018 0.972 72.1259 0.79984 72.2943 0.67952C72.4619 0.55984 72.6418 0.5 72.8338 0.5C73.0258 0.5 73.2056 0.55984 73.3733 0.67952C73.5416 0.79984 73.6658 0.972 73.7458 1.196L75.1378 5.804H79.4338C79.8978 5.804 80.2059 6.028 80.3583 6.476C80.5099 6.924 80.3938 7.284 80.0098 7.556L76.5298 10.028L77.8978 14.468C78.0258 14.916 77.8978 15.276 77.5138 15.548C77.1298 15.82 76.7538 15.812 76.3858 15.524L72.8338 12.812L69.2818 15.524Z" fill="#008080"/>
<path d="M90.8591 15.524C90.4911 15.812 90.1151 15.82 89.7311 15.548C89.3471 15.276 89.2191 14.916 89.3471 14.468L90.7151 10.028L87.2351 7.556C86.8511 7.284 86.7352 6.924 86.8876 6.476C87.0392 6.028 87.3471 5.804 87.8111 5.804H92.1071L93.4991 1.196C93.5791 0.972 93.7032 0.79984 93.8716 0.67952C94.0392 0.55984 94.2191 0.5 94.4111 0.5C94.6031 0.5 94.7829 0.55984 94.9506 0.67952C95.1189 0.79984 95.2431 0.972 95.3231 1.196L96.7151 5.804H101.011C101.475 5.804 101.783 6.028 101.936 6.476C102.087 6.924 101.971 7.284 101.587 7.556L98.1071 10.028L99.4751 14.468C99.6031 14.916 99.4751 15.276 99.0911 15.548C98.7071 15.82 98.3311 15.812 97.9631 15.524L94.4111 12.812L90.8591 15.524Z" fill="#008080"/>
</svg>
