<svg width="88" height="40" viewBox="0 0 88 40" fill="none" xmlns="http://www.w3.org/2000/svg">
<path d="M8.50405 5.66918H11.3387V2.83459H8.50405V5.66918ZM9.92139 14.173C8.12609 14.173 6.41347 13.8009 4.78353 13.0568C3.15358 12.3128 1.55908 11.4801 0 10.5589V8.50377C0 7.72426 0.277563 7.05695 0.832688 6.50184C1.38781 5.94673 2.05514 5.66918 2.83468 5.66918H5.66936V1.4173C5.66936 1.01573 5.80519 0.679121 6.07685 0.407472C6.34851 0.135824 6.68513 0 7.08671 0H12.7561C13.1576 0 13.4943 0.135824 13.7659 0.407472C14.0376 0.679121 14.1734 1.01573 14.1734 1.4173V5.66918H17.0081C17.7876 5.66918 18.455 5.94673 19.0101 6.50184C19.5652 7.05695 19.8428 7.72426 19.8428 8.50377V10.5589C18.2837 11.4801 16.6892 12.3128 15.0592 13.0568C13.4293 13.8009 11.7167 14.173 9.92139 14.173ZM2.83468 26.9286C2.05514 26.9286 1.38781 26.6511 0.832688 26.096C0.277563 25.5408 0 24.8735 0 24.094V13.7478C1.32285 14.5509 2.68704 15.2359 4.09257 15.8028C5.4981 16.3698 6.96859 16.7477 8.50405 16.9367V17.0075C8.50405 17.4091 8.63988 17.7457 8.91153 18.0174C9.18319 18.289 9.51981 18.4248 9.92139 18.4248C10.323 18.4248 10.6596 18.289 10.9312 18.0174C11.2029 17.7457 11.3387 17.4091 11.3387 17.0075V16.9367C12.8742 16.7477 14.3447 16.3698 15.7502 15.8028C17.1557 15.2359 18.5199 14.5509 19.8428 13.7478V24.094C19.8428 24.8735 19.5652 25.5408 19.0101 26.096C18.455 26.6511 17.7876 26.9286 17.0081 26.9286C17.0081 27.3302 16.8723 27.6668 16.6006 27.9384C16.329 28.2101 15.9923 28.3459 15.5908 28.3459C15.2128 28.3459 14.947 28.1747 14.7935 27.8321C14.64 27.4896 14.4333 27.1884 14.1734 26.9286H5.66936C5.66936 27.3302 5.53354 27.6668 5.26188 27.9384C4.99022 28.2101 4.6536 28.3459 4.25202 28.3459C3.87407 28.3459 3.60831 28.1747 3.45477 27.8321C3.30122 27.4896 3.09453 27.1884 2.83468 26.9286Z" fill="white"/>
<path d="M69.8566 16.6972C70.2518 16.1793 70.7901 15.7432 71.4715 15.3889C72.1529 15.0346 72.9229 14.8574 73.7815 14.8574C74.7627 14.8574 75.6554 15.1027 76.4595 15.5933C77.2772 16.0703 77.9177 16.7449 78.381 17.6171C78.8444 18.4892 79.0761 19.4909 79.0761 20.622C79.0761 21.7531 78.8444 22.7684 78.381 23.6678C77.9177 24.5536 77.2772 25.2486 76.4595 25.7529C75.6554 26.2435 74.7627 26.4888 73.7815 26.4888C72.9229 26.4888 72.1597 26.3184 71.492 25.9777C70.8242 25.6234 70.279 25.1873 69.8566 24.6695V31.6605H67.5261V15.0414H69.8566V16.6972ZM76.7048 20.622C76.7048 19.8452 76.5412 19.1774 76.2142 18.6187C75.9007 18.0463 75.4782 17.6171 74.9467 17.3309C74.4288 17.0311 73.8701 16.8812 73.2704 16.8812C72.6844 16.8812 72.1257 17.0311 71.5942 17.3309C71.0763 17.6307 70.6538 18.0668 70.3267 18.6391C70.0133 19.2115 69.8566 19.8861 69.8566 20.6629C69.8566 21.4397 70.0133 22.1211 70.3267 22.7071C70.6538 23.2794 71.0763 23.7155 71.5942 24.0153C72.1257 24.3151 72.6844 24.465 73.2704 24.465C73.8701 24.465 74.4288 24.3151 74.9467 24.0153C75.4782 23.7019 75.9007 23.2522 76.2142 22.6662C76.5412 22.0802 76.7048 21.3988 76.7048 20.622Z" fill="white"/>
<path d="M63.5942 13.5477C63.1718 13.5477 64.027 13.5748 63.7408 13.2886C63.4546 13.0024 63.0594 13.0297 63.0594 12.6072C62.7732 12.8934 63.0594 12.1847 63.0594 12.6072C63.3456 12.321 63.3184 11.9258 63.7409 11.9258C64.1498 11.9258 63.4546 13.0024 63.7408 13.2886C64.027 13.5747 63.7408 12.1847 63.7408 12.6072C63.7408 13.0297 64.027 13.0024 63.7408 13.2886C63.4546 13.5748 64.0031 13.5477 63.5942 13.5477ZM64.739 15.0399V26.3033H62.4086V15.0399H64.739Z" fill="white"/>
<path d="M57.1658 16.6767C57.5065 16.1044 57.9562 15.6615 58.515 15.348C59.0874 15.021 59.762 14.8574 60.5388 14.8574V17.2695H59.9459C59.0328 17.2695 58.3378 17.5012 57.8608 17.9646C57.3974 18.4279 57.1658 19.232 57.1658 20.3767V26.3048H54.8353V15.0414H57.1658V16.6767Z" fill="white"/>
<path d="M47.6829 24.1784L50.8719 15H53.3455L49.0525 26.2634H46.2724L41.9999 15H44.4939L47.6829 24.1784Z" fill="white"/>
<path d="M28.9999 20.7646C28.9999 19.6335 29.2316 18.6318 29.695 17.7596C30.1719 16.8875 30.8125 16.2129 31.6165 15.7359C32.4342 15.2453 33.3337 15 34.3149 15C35.2008 15 35.9708 15.1772 36.6249 15.5315C37.2927 15.8722 37.8242 16.3015 38.2194 16.8193V15.184H40.5703V26.4474H38.2194V24.7712C37.8242 25.3026 37.2859 25.7456 36.6045 26.0999C35.9231 26.4542 35.1463 26.6314 34.2741 26.6314C33.3064 26.6314 32.4206 26.3861 31.6165 25.8955C30.8125 25.3912 30.1719 24.6962 29.695 23.8104C29.2316 22.911 28.9999 21.8957 28.9999 20.7646ZM38.2194 20.8055C38.2194 20.0287 38.0559 19.3541 37.7288 18.7817C37.4154 18.2094 36.9997 17.7733 36.4818 17.4735C35.964 17.1736 35.4052 17.0237 34.8056 17.0237C34.2059 17.0237 33.6472 17.1736 33.1293 17.4735C32.6114 17.7596 32.1889 18.1889 31.8618 18.7613C31.5484 19.32 31.3917 19.9878 31.3917 20.7646C31.3917 21.5414 31.5484 22.2228 31.8618 22.8088C32.1889 23.3947 32.6114 23.8445 33.1293 24.1579C33.6608 24.4577 34.2195 24.6076 34.8056 24.6076C35.4052 24.6076 35.964 24.4577 36.4818 24.1579C36.9997 23.8581 37.4154 23.422 37.7288 22.8496C38.0559 22.2636 38.2194 21.5822 38.2194 20.8055Z" fill="white"/>
<path d="M24.5051 16.6767C24.8459 16.1044 25.2956 15.6615 25.8543 15.348C26.4267 15.021 27.1013 14.8574 27.8781 14.8574V17.2695H27.2853C26.3722 17.2695 25.6772 17.5012 25.2002 17.9646C24.7368 18.4279 24.5051 19.232 24.5051 20.3767V26.3048H22.1747V15.0414H24.5051V16.6767Z" fill="white"/>
<path d="M63.5663 3.75C61.4777 3.75 59.7885 5.43914 59.7885 7.52764C59.7885 10.3609 63.5663 14.5432 63.5663 14.5432C63.5663 14.5432 67.3441 10.3609 67.3441 7.52764C67.3441 5.43914 65.6549 3.75 63.5663 3.75ZM63.5663 8.87679C62.8215 8.87679 62.2171 8.27237 62.2171 7.52764C62.2171 6.7829 62.8215 6.17848 63.5663 6.17848C64.3111 6.17848 64.9155 6.7829 64.9155 7.52764C64.9155 8.27237 64.3111 8.87679 63.5663 8.87679Z" fill="white"/>
<ellipse cx="63.5661" cy="7.52884" rx="1.3492" ry="1.34916" fill="#008080"/>
</svg>
