<svg width="79" height="32" viewBox="0 0 79 32" fill="none" xmlns="http://www.w3.org/2000/svg">
<path d="M8.50405 5.66918H11.3387V2.83459H8.50405V5.66918ZM9.92139 14.173C8.12609 14.173 6.41347 13.8009 4.78353 13.0568C3.15358 12.3128 1.55908 11.4801 0 10.5589V8.50377C0 7.72426 0.277563 7.05695 0.832688 6.50184C1.38781 5.94674 2.05514 5.66918 2.83468 5.66918H5.66936V1.4173C5.66936 1.01573 5.80519 0.679121 6.07685 0.407472C6.34851 0.135824 6.68513 0 7.08671 0H12.7561C13.1576 0 13.4943 0.135824 13.7659 0.407472C14.0376 0.679121 14.1734 1.01573 14.1734 1.4173V5.66918H17.0081C17.7876 5.66918 18.455 5.94674 19.0101 6.50184C19.5652 7.05695 19.8428 7.72426 19.8428 8.50377V10.5589C18.2837 11.4801 16.6892 12.3128 15.0592 13.0568C13.4293 13.8009 11.7167 14.173 9.92139 14.173ZM2.83468 26.9286C2.05514 26.9286 1.38781 26.6511 0.832688 26.096C0.277563 25.5408 0 24.8735 0 24.094V13.7478C1.32285 14.5509 2.68704 15.2359 4.09257 15.8028C5.4981 16.3698 6.96859 16.7477 8.50405 16.9367V17.0075C8.50405 17.4091 8.63988 17.7457 8.91153 18.0174C9.18319 18.289 9.51981 18.4248 9.92139 18.4248C10.323 18.4248 10.6596 18.289 10.9312 18.0174C11.2029 17.7457 11.3387 17.4091 11.3387 17.0075V16.9367C12.8742 16.7477 14.3447 16.3698 15.7502 15.8028C17.1557 15.2359 18.5199 14.5509 19.8428 13.7478V24.094C19.8428 24.8735 19.5652 25.5408 19.0101 26.096C18.455 26.6511 17.7876 26.9286 17.0081 26.9286C17.0081 27.3302 16.8723 27.6668 16.6006 27.9384C16.329 28.2101 15.9923 28.3459 15.5908 28.3459C15.2128 28.3459 14.947 28.1747 14.7935 27.8321C14.64 27.4896 14.4333 27.1884 14.1734 26.9286H5.66936C5.66936 27.3302 5.53354 27.6668 5.26188 27.9384C4.99022 28.2101 4.6536 28.3459 4.25202 28.3459C3.87407 28.3459 3.60831 28.1747 3.45477 27.8321C3.30122 27.4896 3.09453 27.1884 2.83468 26.9286Z" fill="#1A2129"/>
<path d="M69.4877 17.037C69.8829 16.5192 70.4212 16.0831 71.1026 15.7288C71.784 15.3744 72.554 15.1973 73.4126 15.1973C74.3938 15.1973 75.2865 15.4426 76.0906 15.9332C76.9083 16.4101 77.5488 17.0847 78.0122 17.9569C78.4755 18.8291 78.7072 19.8307 78.7072 20.9618C78.7072 22.093 78.4755 23.1082 78.0122 24.0077C77.5488 24.8935 76.9083 25.5885 76.0906 26.0927C75.2865 26.5833 74.3938 26.8286 73.4126 26.8286C72.554 26.8286 71.7908 26.6583 71.1231 26.3176C70.4553 25.9633 69.9101 25.5272 69.4877 25.0093V32.0004H67.1572V15.3812H69.4877V17.037ZM76.3359 20.9618C76.3359 20.1851 76.1723 19.5173 75.8453 18.9585C75.5318 18.3862 75.1093 17.9569 74.5778 17.6707C74.0599 17.3709 73.5012 17.221 72.9015 17.221C72.3155 17.221 71.7568 17.3709 71.2253 17.6707C70.7074 17.9705 70.2849 18.4066 69.9578 18.979C69.6444 19.5514 69.4877 20.2259 69.4877 21.0027C69.4877 21.7795 69.6444 22.4609 69.9578 23.0469C70.2849 23.6193 70.7074 24.0554 71.2253 24.3552C71.7568 24.655 72.3155 24.8049 72.9015 24.8049C73.5012 24.8049 74.0599 24.655 74.5778 24.3552C75.1093 24.0417 75.5318 23.592 75.8453 23.006C76.1723 22.42 76.3359 21.7386 76.3359 20.9618Z" fill="#1A2129"/>
<path d="M63.2247 13.8875C62.8022 13.8875 63.6575 13.9146 63.3713 13.6284C63.0851 13.3422 62.6899 13.3695 62.6899 12.947C62.4037 13.2332 62.6899 12.5246 62.6899 12.947C62.9761 12.6608 62.9489 12.2656 63.3714 12.2656C63.7803 12.2656 63.0851 13.3422 63.3713 13.6284C63.6575 13.9146 63.3713 12.5246 63.3713 12.947C63.3713 13.3695 63.6575 13.3422 63.3713 13.6284C63.0851 13.9146 63.6336 13.8875 63.2247 13.8875ZM64.3695 15.3798V26.6432H62.0391V15.3798H64.3695Z" fill="#1A2129"/>
<path d="M56.7963 17.0166C57.137 16.4442 57.5867 16.0013 58.1455 15.6879C58.7178 15.3608 59.3924 15.1973 60.1693 15.1973V17.6094H59.5764C58.6633 17.6094 57.9683 17.8411 57.4913 18.3044C57.0279 18.7678 56.7963 19.5718 56.7963 20.7165V26.6447H54.4658V15.3812H56.7963V17.0166Z" fill="#1A2129"/>
<path d="M47.3148 24.5592L50.5038 15.3809H52.9774L48.6845 26.6443H45.9043L41.6318 15.3809H44.1258L47.3148 24.5592Z" fill="#1A2129"/>
<path d="M28.6016 20.9618C28.6016 19.8307 28.8332 18.8291 29.2966 17.9569C29.7736 17.0847 30.4141 16.4101 31.2182 15.9332C32.0359 15.4426 32.9354 15.1973 33.9166 15.1973C34.8024 15.1973 35.5724 15.3744 36.2266 15.7288C36.8944 16.0694 37.4259 16.4987 37.8211 17.0166V15.3812H40.172V26.6446H37.8211V24.9684C37.4259 25.4999 36.8876 25.9428 36.2061 26.2971C35.5247 26.6515 34.7479 26.8286 33.8757 26.8286C32.9081 26.8286 32.0223 26.5833 31.2182 26.0927C30.4141 25.5885 29.7736 24.8935 29.2966 24.0077C28.8332 23.1082 28.6016 22.093 28.6016 20.9618ZM37.8211 21.0027C37.8211 20.2259 37.6576 19.5514 37.3305 18.979C37.017 18.4066 36.6014 17.9705 36.0835 17.6707C35.5656 17.3709 35.0069 17.221 34.4072 17.221C33.8076 17.221 33.2488 17.3709 32.7309 17.6707C32.2131 17.9569 31.7906 18.3862 31.4635 18.9585C31.1501 19.5173 30.9933 20.1851 30.9933 20.9618C30.9933 21.7386 31.1501 22.42 31.4635 23.006C31.7906 23.592 32.2131 24.0417 32.7309 24.3552C33.2624 24.655 33.8212 24.8049 34.4072 24.8049C35.0069 24.8049 35.5656 24.655 36.0835 24.3552C36.6014 24.0554 37.017 23.6193 37.3305 23.0469C37.6576 22.4609 37.8211 21.7795 37.8211 21.0027Z" fill="#1A2129"/>
<path d="M24.1361 17.0166C24.4768 16.4442 24.9265 16.0013 25.4853 15.6879C26.0577 15.3608 26.7323 15.1973 27.5091 15.1973V17.6094H26.9163C26.0032 17.6094 25.3081 17.8411 24.8311 18.3044C24.3678 18.7678 24.1361 19.5718 24.1361 20.7165V26.6447H21.8057V15.3812H24.1361V17.0166Z" fill="#1A2129"/>
<path d="M63.322 6C61.6512 6 60.2998 7.35131 60.2998 9.02211C60.2998 11.2887 63.322 14.6346 63.322 14.6346C63.322 14.6346 66.3442 11.2887 66.3442 9.02211C66.3442 7.35131 64.9929 6 63.322 6ZM63.322 10.1014C62.7262 10.1014 62.2427 9.6179 62.2427 9.02211C62.2427 8.42632 62.7262 7.94278 63.322 7.94278C63.9178 7.94278 64.4014 8.42632 64.4014 9.02211C64.4014 9.6179 63.9178 10.1014 63.322 10.1014Z" fill="#008080"/>
</svg>
